<svg width="190" height="285" viewBox="0 0 190 285" fill="none" xmlns="http://www.w3.org/2000/svg">
<mask id="mask0_55605_1623" style="mask-type:alpha" maskUnits="userSpaceOnUse" x="0" y="0" width="190" height="285">
<rect x="2.5" y="2.5" width="185" height="280" fill="#D9D9D9" stroke="#9A9A9A" stroke-width="5"/>
</mask>
<g mask="url(#mask0_55605_1623)">
<path d="M78.7787 151.757C79.7489 150.774 79.7391 149.192 78.7568 148.221C77.7744 147.251 76.1915 147.261 75.2213 148.243L78.7787 151.757ZM-1.22129 232.757L78.7787 151.757L75.2213 148.243L-4.77871 229.243L-1.22129 232.757Z" fill="#9A9A9A"/>
<path d="M158 227L77 150" stroke="#9A9A9A" stroke-width="5" stroke-linecap="round"/>
<path d="M160.8 175.735C161.758 174.741 161.729 173.159 160.735 172.2C159.741 171.242 158.159 171.271 157.2 172.265L160.8 175.735ZM133.8 203.735L160.8 175.735L157.2 172.265L130.2 200.265L133.8 203.735Z" fill="#9A9A9A"/>
<path d="M160.713 172.18C159.708 171.233 158.126 171.281 157.18 172.287C156.233 173.292 156.281 174.874 157.287 175.82L160.713 172.18ZM157.287 175.82L191.287 207.82L194.713 204.179L160.713 172.18L157.287 175.82Z" fill="#9A9A9A"/>
<path d="M74.5 97C74.5 106.665 66.665 114.5 57 114.5C47.335 114.5 39.5 106.665 39.5 97C39.5 87.335 47.335 79.5 57 79.5C66.665 79.5 74.5 87.335 74.5 97Z" stroke="#9A9A9A" stroke-width="5"/>
</g>
</svg>
